<svg width="50" height="49" viewBox="0 0 50 49" fill="none" xmlns="http://www.w3.org/2000/svg">
<g filter="url(#filter0_d_2_444)">
<circle cx="21.0975" cy="20.6688" r="8.16835" fill="#24D6D9"/>
</g>
<path d="M18.741 23.1313H18.0295V17.9835H21.1589V18.6442H18.741V20.2997H20.9338V20.9676H18.741V23.1313ZM21.0844 21.5993V21.2653L21.796 21.1056V21.5921C21.796 21.9212 21.8758 22.1681 22.0356 22.3327C22.1953 22.4972 22.4107 22.5795 22.6818 22.5795C22.9432 22.5795 23.1489 22.4972 23.2989 22.3327C23.449 22.1681 23.524 21.9382 23.524 21.6429V17.9835H24.2356V21.5921C24.2356 22.0568 24.0928 22.4488 23.8072 22.7683C23.5264 23.0829 23.1537 23.2403 22.689 23.2403C22.1905 23.2403 21.7984 23.0926 21.5128 22.7974C21.2272 22.4972 21.0844 22.0979 21.0844 21.5993Z" fill="white"/>
<defs>
<filter id="filter0_d_2_444" x="0.929108" y="0.500488" width="48.3367" height="48.3367" filterUnits="userSpaceOnUse" color-interpolation-filters="sRGB">
<feFlood flood-opacity="0" result="BackgroundImageFix"/>
<feColorMatrix in="SourceAlpha" type="matrix" values="0 0 0 0 0 0 0 0 0 0 0 0 0 0 0 0 0 0 127 0" result="hardAlpha"/>
<feOffset dx="4" dy="4"/>
<feGaussianBlur stdDeviation="8"/>
<feColorMatrix type="matrix" values="0 0 0 0 0 0 0 0 0 0 0 0 0 0 0 0 0 0 0.1 0"/>
<feBlend mode="normal" in2="BackgroundImageFix" result="effect1_dropShadow_2_444"/>
<feBlend mode="normal" in="SourceGraphic" in2="effect1_dropShadow_2_444" result="shape"/>
</filter>
</defs>
</svg>
